<?xml version="1.0" encoding="UTF-8"?>
<svg xmlns="http://www.w3.org/2000/svg" id="uuid-0dd3ffef-2ba0-4f5f-8e7f-00d302f99709" viewBox="0 0 462.48 276.96">
  <path d="m462.48,276.96H0V0c154.16,0,308.32,0,462.48,0,0,92.32,0,184.64,0,276.96Zm-9.6-267.36H9.62v257.73h443.27V9.6Z"></path>
  <path d="m97.07,130.61c.66-.34,1.29-.48,1.66-.87,10.53-10.94,21.05-21.9,31.54-32.88,8.5-8.9,17.16-17.66,24.72-27.41,1.36-1.76,2.58-3.66,3.71-5.58.94-1.59,1.27-3.33.93-5.23-.31-1.72-1.28-2.68-2.86-3.15-.57-.17-1.17-.27-1.73-.47-1.31-.46-1.86-1.32-1.68-2.54.12-.79,1.26-1.61,2.38-1.59,2.54.05,5.08.16,7.62.22,3.38.09,6.76.17,10.14.24,3.9.08,7.8.18,11.7.19,2.66,0,5.33-.12,7.99-.19,2.9-.08,5.8-.15,8.7-.24,2.38-.07,4.76-.21,7.14-.24,1.06-.01,2.13.09,3.16.3.8.17,1.39.66,1.43,1.67.03,1-.21,1.74-1.21,2.06-.44.14-.92.27-1.38.27-8.99.05-17.12,2.84-24.64,7.65-5.76,3.68-10.95,8.04-15.79,12.83-13.89,13.76-27.75,27.56-41.61,41.36-3.31,3.3-6.55,6.67-9.92,10.12,2.84,3.31,5.53,6.63,8.41,9.78,15.18,16.55,30.36,33.1,45.63,49.57,8.02,8.65,16.49,16.86,25.46,24.54,5.92,5.06,12.33,9.41,19.61,12.25,4.01,1.57,8.12,2.99,12.5,3.26.98.06,2,0,2.93.25.68.18,1.59.67,1.78,1.23.44,1.33,0,2.17-1.2,2.43-1.47.32-3,.49-4.5.5-6.88.05-13.76,0-20.64.03-2.71,0-5.44.22-8.14.09-3.58-.17-7.16-.52-10.72-.9-8.1-.88-14.72-4.88-20.92-9.87-7.82-6.3-14.52-13.71-21.19-21.15-15.57-17.4-30.84-35.05-45.6-53.13-1.36-1.67-2.57-3.47-3.91-5.16-.31-.39-.86-.57-1.58-1.02,0,.88,0,1.31,0,1.74,0,14.96,0,29.92,0,44.88,0,2.4.06,4.8.08,7.19.04,3.08,0,6.16.13,9.23.17,4.23.22,8.49.78,12.68.5,3.75,1.76,7.4,5.55,9.21,1.51.72,3.27,1.02,4.95,1.25,2.64.37,5.32.54,7.98.76.75.06,1.52,0,2.28,0,1.24,0,2.11.57,2.26,1.52.17,1.05-.55,2.1-1.8,2.29-1.48.23-2.99.36-4.49.37-3,.03-6-.05-8.99-.09-4.94-.07-9.88-.16-14.82-.23-6.18-.09-12.35-.2-18.53-.23-2.9-.01-5.8.16-8.7.22-4.5.09-8.99.17-13.49.24-.26,0-.54-.06-.79-.15-1.53-.58-2.28-1.43-2.11-2.37.16-.89,1.46-1.7,2.95-1.78,1.86-.1,3.74-.07,5.58-.27,1.68-.18,3.37-.45,4.98-.95,2.35-.73,3.49-2.7,4.2-4.89,1.02-3.15,1.57-6.39,1.72-9.71.22-4.71.57-9.43.7-14.14.99-35.85.22-71.71.44-107.56.03-4.52-.03-9.04-.22-13.55-.16-3.67-.33-7.38-.94-11-.97-5.76-4.88-7.85-9.96-8.56-3.44-.48-6.94-.49-10.4-.76-.56-.04-1.26-.18-1.59-.55-.45-.5-.85-1.29-.8-1.91.04-.5.72-1.26,1.22-1.36,1.51-.31,3.07-.37,4.62-.5.36-.03.72.02,1.08.03,4.94.08,9.88.15,14.83.25,2.7.05,5.4.17,8.1.23,3.7.08,7.4.19,11.11.19,3.34,0,6.69-.11,10.03-.19,2.7-.06,5.4-.16,8.1-.24,2.98-.08,5.96-.19,8.94-.23.86-.01,1.74.08,2.57.27.82.18,1.6.49,1.64,1.6.05,1.09-.25,1.92-1.39,2.18-.68.16-1.4.17-2.1.26-2.58.33-5.19.5-7.72,1.04-3.22.69-5.3,2.8-6.33,5.94-.75,2.3-1.16,4.66-1.18,7.09-.15,20.1-.31,40.19-.47,60.29,0,.24.03.47.06,1.05Z"></path>
  <path d="m353.81,169.25c-2.85,3.01-5.51,6.23-8.59,8.98-8.6,7.66-18.5,13.05-29.68,15.96-4.38,1.14-8.82,2.04-13.36,2.17-3.11.09-6.22.3-9.32.16-2.74-.12-5.47-.59-8.19-1.02-13.42-2.13-25.7-7.32-37.39-14.07-1.74-1-3.47-1.06-5.1-.12-2.31,1.33-4.54,2.82-6.73,4.36-5.23,3.69-10.68,6.88-16.93,8.6-4.53,1.25-9.13,1.13-13.74,1.09-4.95-.04-9.75-1.05-14.45-2.54-8.88-2.81-16.07-7.85-20.91-15.96-1.88-3.15-3.31-6.52-4.01-10.08-1.78-9.09.27-17.5,5.11-25.27,4.99-8,11.69-14.22,20.07-18.77-.61-.9-1.24-1.8-1.85-2.71-2.69-3.96-4.7-8.27-5.58-12.96-2.5-13.27,2.91-23.8,14.32-30.5,3.7-2.17,7.7-3.63,11.92-4.35,2.71-.46,5.47-.67,8.22-.93,1.54-.15,3.11-.36,4.63-.21,3.74.36,7.48.79,11.19,1.42,2.3.39,4.55,1.12,6.79,1.81,2.93.91,3.07,2.19,2.85,5.47-.03.43-.15.85-.18,1.28-.25,3.18-.45,6.37-.73,9.55-.26,2.97-.59,5.93-.94,8.88-.06.53-.22,1.19-.59,1.52-.38.34-1.09.51-1.6.42-.29-.05-.65-.75-.67-1.17-.15-3.09-.31-6.13-1.36-9.12-1.76-4.99-4.99-8.52-9.69-10.78-3.21-1.55-6.64-2.01-10.19-2.14-3.71-.13-7.11.6-10.23,2.6-3.54,2.26-5.86,5.43-6.98,9.48-1.57,5.72-.71,11.22,1.55,16.58,2.54,6.03,6.45,11.17,10.64,16.1,11.31,13.29,23.62,25.61,36.69,37.17.05.05.13.07.29.15-.24-1.56-.5-3.06-.69-4.57-.34-2.65-.77-5.31-.94-7.97-.26-4.16-.51-8.34-.44-12.5.05-3.29.57-6.58.91-9.87.51-4.97,1.72-9.81,3.2-14.54,3.91-12.47,10.04-23.75,19.03-33.35,13.5-14.42,30.12-23.2,49.39-27.04,4.86-.97,9.8-1.58,14.72-2.17,3.03-.36,6.1-.38,9.16-.5,3.26-.12,6.52-.23,9.78-.23,2.98,0,5.97.07,8.94.24,4.21.25,8.43.56,12.63.96,2.96.29,5.9.74,8.84,1.18,4.25.63,8.5,1.27,12.74,1.99,3.74.63,7.45,1.39,11.18,2.08.65.12,1.32.13,1.96.25,2.22.44,2.98,1.69,2.59,3.84-.33,1.85-.51,3.73-.72,5.6-.67,6.01-.77,12.03-.74,18.07.02,3.34-.1,6.68-.23,10.02-.09,2.24-.25,4.49-.5,6.72-.21,1.84-1.02,2.54-2.55,2.54-1.1,0-2.01-.69-2.2-1.76-.14-.77-.22-1.56-.25-2.35-.51-14.11-7.15-24.19-19.9-30.22-4.95-2.34-10.14-3.94-15.51-5.06-4.44-.92-8.88-1.75-13.43-1.9-4.4-.14-8.81-.52-13.21-.39-10.99.32-21.6,2.36-31.22,8.02-12.03,7.08-20.09,17.51-24.95,30.43-1.74,4.62-2.98,9.45-4.11,14.27-.74,3.16-.95,6.46-1.25,9.71-.39,4.24-.62,8.49-.93,12.73-1.91-2.02-3.15-5-6.62-5.15,1.27.72,1.72,1.78,1.53,3.18-.18,1.36-.26,2.74-.44,4.1-1.65,12.33-7.17,22.88-14.88,32.42-.02.03-.02.07-.12.41,2.55,1.58,5.15,3.26,7.82,4.82,1.71,1,3.52,1.86,5.3,2.74.72.36,1.3.32,1.9-.45,3.83-4.87,5.98-10.51,7.59-16.4.26-.96.48-1.94.73-2.99.99,4,1.78,7.92,2.95,11.71,1.45,4.7,3.58,9.13,6.29,13.26.25.38.91.61,1.42.68,1.75.22,3.51.39,5.28.47,2.78.13,5.57.35,8.34.23,3.38-.14,6.75-.59,10.13-.91,6.45-.62,12.65-2.36,18.69-4.59,6.16-2.27,11.91-5.37,17.37-9.02.06.07.11.15.17.22Zm-158.99-40.35c-4.14,2.96-6.92,6.9-8.76,11.43-2.27,5.59-2.55,11.54-1.92,17.45.44,4.13,1.71,8.11,3.72,11.8,4.86,8.93,12.43,14.14,22.37,15.6,3.76.55,7.69.3,11.51-.51,4.26-.9,8.32-2.33,12.16-4.39,2.27-1.22,4.46-2.56,6.39-4.34-16.32-14.65-32.02-29.71-45.47-47.04Z"></path>
  <path d="m279.04,208.28c1.32.17,2.63.38,3.95.51,2.07.2,4.15.49,6.23.5,3.74.01,7.52.17,11.2-.33,4.94-.67,9.81-1.93,14.72-2.88.43-.08,1.06,0,1.38.28,5.34,4.45,11.38,7.64,17.85,10.1,4.55,1.73,9.25,2.95,14.04,3.56,3.7.47,7.48.34,11.22.35,2.62.01,5.24-.11,7.86-.29,8.11-.55,16.11-1.67,23.26-5.91,7.72-4.57,12.8-11.28,15.57-19.77.58-1.77,1-3.59,1.45-5.39.34-1.39,1.12-2.2,2.21-2.29,2.15-.19,2.32.79,2.58,2.96.14,1.2-.09,2.45-.24,3.67-.35,2.87-.64,5.76-1.14,8.61-1.14,6.43-2.39,12.84-3.62,19.25-.16.82-.48,1.6-.74,2.4-.72,2.29-2.3,3.75-4.45,4.71-3.6,1.61-7.39,2.56-11.24,3.24-4.03.71-8.09,1.27-12.15,1.72-3.46.38-6.95.65-10.43.73-7.1.16-14.21.31-21.31.17-4.21-.08-8.41-.64-12.6-1.14-3.82-.45-7.65-.95-11.42-1.71-13.84-2.82-26.78-7.78-37.92-16.73-2.28-1.83-4.27-4.04-6.39-6.07.05-.09.09-.17.14-.26Z"></path>
</svg>
